<?xml version="1.0" encoding="UTF-8"?>
<svg viewBox="0 0 19 19" version="1.1" xmlns="http://www.w3.org/2000/svg" xmlns:xlink="http://www.w3.org/1999/xlink">
    <title>Group</title>
    <defs>
        <filter id="filter-1">
            <feColorMatrix in="SourceGraphic" type="matrix" values="0 0 0 0 0.000000 0 0 0 0 0.000000 0 0 0 0 0.000000 0 0 0 1.000000 0"></feColorMatrix>
        </filter>
    </defs>
    <g id="Page-1" stroke="none" stroke-width="1" fill="none" fill-rule="evenodd">
        <g id="Group" transform="translate(0.500000, 0.500000)">
            <circle id="Oval" fill="#FFFFFF" cx="9" cy="9" r="9"></circle>
            <g filter="url(#filter-1)" id="login">
                <g transform="translate(2.500000, 2.500000)">
                    <path d="M6.5,0 C4.3292398,0 2.4011149,1.0674501 1.2207031,2.7070312 C1.20616266,2.72687534 1.19310638,2.7477654 1.1816406,2.7695312 C0.9115085,3.1564749 0.6981604,3.57148 0.5195312,4 L1.6015625,4 C1.7265625,3.755 1.8702031,3.5189688 2.0332031,3.2929688 L2.03125,3.2929688 C3.0308382,1.9045499 4.6567602,1 6.5,1 C9.543833,1 12,3.456167 12,6.5 C12,9.543833 9.543833,12 6.5,12 C4.7082346,12 3.1222551,11.14658 2.1171875,9.824219 C1.9191875,9.563219 1.7514687,9.286 1.6054688,9 L0.5195312,9 C0.7185698,9.474849 0.9620461,9.933457 1.2734375,10.357422 C1.28553076,10.3792495 1.29924093,10.4001412 1.3144531,10.419922 C1.31638076,10.422545 1.31833399,10.4251491 1.3203125,10.427734 C1.3208689,10.428466 1.3217089,10.428956 1.3222656,10.429688 C2.5092934,11.990079 4.3907546,13 6.5,13 C10.084167,13 13,10.084167 13,6.5 C13,2.915833 10.084167,0 6.5,0 Z M7,4 L7,6 L0,6 L0,7 L7,7 L7,9 L9.5,6.5 L7,4 Z" id="Shape" fill="#000000" fill-rule="nonzero"></path>
                </g>
            </g>
        </g>
    </g>
</svg>